<?xml version="1.0" standalone="no"?>
<!DOCTYPE svg PUBLIC "-//W3C//DTD SVG 20010904//EN"
 "http://www.w3.org/TR/2001/REC-SVG-20010904/DTD/svg10.dtd">
<svg version="1.0" xmlns="http://www.w3.org/2000/svg"
 width="512.000000pt" height="512.000000pt" viewBox="0 0 512.000000 512.000000"
 preserveAspectRatio="xMidYMid meet">
<metadata>
Created by potrace 1.14, written by Peter Selinger 2001-2017
</metadata>
<g transform="translate(0.000000,512.000000) scale(0.100000,-0.100000)"
fill="#000000" stroke="none">
<path d="M95 5106 c-41 -18 -83 -69 -90 -109 -3 -18 -4 -1126 -3 -2464 l3
-2432 21 -27 c11 -15 33 -37 48 -48 l27 -21 2459 0 2459 0 27 21 c15 11 37 33
48 48 l21 27 0 2459 0 2459 -21 27 c-11 15 -33 37 -48 48 l-27 21 -2447 2
c-2019 2 -2452 0 -2477 -11z m2510 -356 c42 -16 1797 -1031 1823 -1054 55 -49
52 8 52 -1136 0 -1144 3 -1087 -52 -1136 -12 -12 -428 -255 -923 -540 -861
-497 -902 -519 -950 -519 -48 0 -89 22 -950 519 -495 286 -911 529 -924 540
-53 47 -51 5 -51 1136 0 1131 -2 1089 51 1136 24 21 1782 1038 1823 1054 29
12 70 12 101 0z"/>
<path d="M1808 3996 c-411 -237 -748 -433 -748 -436 0 -5 1095 -641 1440 -837
l56 -32 744 430 c410 236 746 433 747 437 2 4 -198 123 -443 265 l-446 257
-437 -251 c-240 -139 -441 -257 -448 -263 -9 -8 24 -32 133 -94 81 -46 152
-81 159 -78 8 3 142 79 300 170 158 91 289 166 292 166 11 0 293 -165 293
-171 0 -9 -890 -521 -899 -517 -23 9 -891 514 -891 518 0 3 262 155 581 339
319 184 587 340 596 346 16 12 16 12 -247 163 l-35 20 -747 -432z"/>
<path d="M902 2428 l3 -870 743 -429 c409 -236 746 -429 748 -429 2 0 4 233 4
519 l0 518 -444 257 c-245 141 -447 256 -451 256 -3 0 -4 -77 -3 -171 l3 -172
297 -171 298 -171 0 -173 c0 -96 -4 -172 -9 -170 -4 2 -207 118 -450 258
l-441 255 0 519 c0 480 1 518 17 512 9 -4 277 -157 596 -341 318 -184 581
-335 583 -335 2 0 4 76 4 170 0 165 -1 170 -22 184 -13 8 -350 203 -751 434
l-727 420 2 -870z"/>
<path d="M3455 2862 l-740 -428 -3 -867 c-1 -477 0 -867 2 -867 2 0 339 193
748 429 l743 429 3 522 2 521 -58 -33 c-33 -18 -235 -134 -450 -258 l-391
-225 -1 -173 0 -173 23 12 c12 7 137 78 277 159 140 81 265 152 278 159 l22
12 0 -173 0 -174 -441 -254 c-242 -140 -445 -257 -450 -258 -6 -2 -8 195 -7
518 l3 521 595 344 595 343 3 171 c1 94 -1 171 -5 171 -5 0 -341 -193 -748
-428z"/>
</g>
</svg>
